<svg version="1.1" id="Capa_1" xmlns="http://www.w3.org/2000/svg" xmlns:xlink="http://www.w3.org/1999/xlink" x="0px" y="0px" viewBox="0 0 1200 1200" enable-background="new 0 0 1200 1200" xml:space="preserve">
<g>
	<path fill="#D181E1" d="M921.055,1079.557H278.945c-39.778,0-72.024-32.246-72.024-72.024V142.344&#10;&#9;&#9;c0-39.778,32.246-72.024,72.024-72.024h642.111c39.778,0,72.024,32.246,72.024,72.024v865.188&#10;&#9;&#9;C993.079,1047.31,960.833,1079.557,921.055,1079.557z" style="fill: rgb(127, 174, 225);"/>
	<path fill="#F2F2F7" d="M673.854,959.893H316.11c-18.784,0-34.011-15.227-34.011-34.011V183.354&#10;&#9;&#9;c0-18.784,15.227-34.011,34.011-34.011H883.89c18.784,0,34.011,15.227,34.011,34.011v532.493L673.854,959.893z"/>
	<path fill="#7785E7" d="M734.185,171.921h-268.37c-14.271,0-25.839-11.569-25.839-25.839V75.839&#10;&#9;&#9;c0-14.271,11.569-25.839,25.839-25.839h268.37c14.271,0,25.839,11.569,25.839,25.839v70.243&#10;&#9;&#9;C760.024,160.353,748.456,171.921,734.185,171.921z"/>
	<circle fill="#D181E1" cx="505.611" cy="110.961" r="20.009" style="fill: rgb(127, 174, 225);"/>
	<circle fill="#D181E1" cx="694.389" cy="110.961" r="20.009" style="fill: rgb(127, 174, 225);"/>
	<path fill="#D1D1DB" d="M673.854,959.893V749.857c0-18.784,15.227-34.011,34.011-34.011H917.9L673.854,959.893z"/>
	<path fill="#D1D1DB" d="M822.242,270.128H372.191c-8.883,0-16.15-7.268-16.15-16.15v0c0-8.883,7.268-16.15,16.15-16.15h450.051&#10;&#9;&#9;c8.883,0,16.15,7.268,16.15,16.15v0C838.392,262.86,831.124,270.128,822.242,270.128z"/>
	<path fill="#D1D1DB" d="M822.242,367.979H372.191c-8.883,0-16.15-7.268-16.15-16.15v0c0-8.883,7.268-16.15,16.15-16.15h450.051&#10;&#9;&#9;c8.883,0,16.15,7.268,16.15,16.15v0C838.392,360.711,831.124,367.979,822.242,367.979z"/>
	<path fill="#D1D1DB" d="M822.242,465.83H372.191c-8.883,0-16.15-7.268-16.15-16.15v0c0-8.883,7.268-16.15,16.15-16.15h450.051&#10;&#9;&#9;c8.883,0,16.15,7.268,16.15,16.15v0C838.392,458.562,831.124,465.83,822.242,465.83z"/>
	<path fill="#D1D1DB" d="M822.242,563.681H372.191c-8.883,0-16.15-7.268-16.15-16.15l0,0c0-8.883,7.268-16.15,16.15-16.15h450.051&#10;&#9;&#9;c8.883,0,16.15,7.268,16.15,16.15l0,0C838.392,556.413,831.124,563.681,822.242,563.681z"/>
	<path fill="#D1D1DB" d="M822.242,661.532H372.191c-8.883,0-16.15-7.268-16.15-16.15l0,0c0-8.883,7.268-16.15,16.15-16.15h450.051&#10;&#9;&#9;c8.883,0,16.15,7.268,16.15,16.15l0,0C838.392,654.264,831.124,661.532,822.242,661.532z"/>
	<path fill="#AA76AC" d="M206.921,1007.533c0,39.778,32.246,72.024,72.024,72.024h642.111c39.778,0,72.024-32.246,72.024-72.024&#10;&#9;&#9;v70.443c0,39.778-32.246,72.024-72.024,72.024H278.945c-39.778,0-72.024-32.246-72.024-72.024V1007.533z" style="fill: rgb(118, 132, 173);"/>
	<path fill="#6B77CC" d="M434.725,715.847c-43.457,0-78.685,35.228-78.685,78.684c0,43.457,35.228,78.685,78.685,78.685&#10;&#9;&#9;c43.456,0,78.684-35.228,78.684-78.685C513.409,751.075,478.181,715.847,434.725,715.847z M480.075,809.983&#10;&#9;&#9;c0,2.2-1.783,3.983-3.983,3.983h-17.948c-2.2,0-3.983,1.783-3.983,3.983v17.948c0,2.2-1.784,3.983-3.983,3.983h-30.905&#10;&#9;&#9;c-2.2,0-3.983-1.784-3.983-3.983V817.95c0-2.2-1.784-3.983-3.983-3.983h-17.948c-2.2,0-3.983-1.783-3.983-3.983v-30.905&#10;&#9;&#9;c0-2.2,1.783-3.983,3.983-3.983h17.948c2.2,0,3.983-1.783,3.983-3.983v-17.947c0-2.2,1.783-3.983,3.983-3.983h30.905&#10;&#9;&#9;c2.199,0,3.983,1.784,3.983,3.983v17.947c0,2.2,1.783,3.983,3.983,3.983h17.948c2.2,0,3.983,1.783,3.983,3.983V809.983z" style="fill: rgb(96, 105, 175);"/>
</g>
</svg>